<?xml version="1.0" standalone="no"?>
<!DOCTYPE svg PUBLIC "-//W3C//DTD SVG 20010904//EN"
 "http://www.w3.org/TR/2001/REC-SVG-20010904/DTD/svg10.dtd">
<svg version="1.0" xmlns="http://www.w3.org/2000/svg"
 width="512.000000pt" height="512.000000pt" viewBox="0 0 512.000000 512.000000"
 preserveAspectRatio="xMidYMid meet">

<g transform="translate(0.000000,512.000000) scale(0.100000,-0.100000)"
fill="#000000" stroke="none">
<path d="M2330 5110 c-494 -48 -950 -230 -1350 -538 -195 -150 -448 -432 -594
-662 -63 -99 -186 -351 -230 -471 -49 -134 -102 -340 -128 -499 -31 -195 -31
-565 0 -760 45 -276 116 -498 237 -745 132 -269 269 -460 489 -681 221 -220
412 -357 681 -489 247 -121 469 -192 745 -237 195 -31 565 -31 760 0 276 45
498 116 745 237 269 132 460 269 681 489 220 221 357 412 489 681 88 179 132
296 180 476 63 240 78 371 78 649 0 278 -15 409 -78 649 -48 180 -92 297 -180
476 -132 269 -269 460 -489 681 -221 220 -412 357 -681 489 -246 121 -474 193
-740 235 -147 23 -475 34 -615 20z m420 -390 l0 -200 -197 2 -198 3 -3 198 -2
197 200 0 200 0 0 -200z m-1577 -772 l-143 -143 -140 140 -140 140 142 142
143 143 140 -140 140 -140 -142 -142z m3057 -3 l-140 -140 -142 142 -143 143
140 140 140 140 142 -142 143 -143 -140 -140z m-1390 379 c695 -109 1264 -625
1449 -1314 73 -275 73 -625 0 -900 -151 -562 -555 -1012 -1099 -1221 -327
-126 -740 -148 -1080 -58 -691 185 -1198 746 -1315 1454 -23 135 -23 415 0
550 117 709 624 1268 1316 1454 223 59 489 72 729 35z m-2250 -1764 l0 -200
-200 0 -200 0 0 200 0 200 200 0 200 0 0 -200z m4320 0 l0 -200 -195 0 -195 0
0 200 0 200 195 0 195 0 0 -200z m-3735 -1390 l140 -140 -140 -140 -140 -140
-142 142 -143 143 137 137 c76 76 140 138 143 138 3 0 68 -63 145 -140z m3058
2 l137 -137 -143 -143 -142 -142 -140 140 -140 140 140 140 c77 77 142 140
145 140 3 0 67 -62 143 -138z m-1483 -772 l0 -200 -200 0 -200 0 0 193 c0 107
3 197 7 200 3 4 93 7 200 7 l193 0 0 -200z"/>
<path d="M2435 4010 c-271 -24 -531 -124 -750 -288 -126 -94 -275 -256 -360
-392 -227 -360 -281 -829 -143 -1235 189 -556 681 -937 1270 -985 296 -24 626
57 878 215 136 85 298 234 392 360 289 385 370 888 216 1340 -124 365 -389
668 -731 837 -242 120 -510 171 -772 148z m-585 -1450 l0 -680 -100 0 -100 0
0 485 0 485 -35 0 c-19 0 -35 3 -35 6 0 7 80 284 101 352 l11 32 79 0 79 0 0
-680z m801 661 l24 -19 0 -642 0 -642 -24 -19 c-21 -18 -42 -19 -283 -19 -221
0 -264 2 -287 16 -58 34 -56 10 -59 639 -2 393 0 592 8 617 6 20 24 48 41 62
l31 26 263 0 c244 0 264 -1 286 -19z m840 -10 l29 -29 0 -622 0 -622 -29 -29
-29 -29 -265 0 c-251 0 -266 1 -290 20 -15 12 -31 38 -37 58 -14 50 -14 1154
0 1204 6 20 22 46 37 58 24 19 39 20 290 20 l265 0 29 -29z"/>
<path d="M2220 2560 l0 -511 133 3 132 3 0 505 0 505 -132 3 -133 3 0 -511z"/>
<path d="M3060 2560 l0 -510 130 0 130 0 0 510 0 510 -130 0 -130 0 0 -510z"/>
</g>
</svg>
